<!-- Copyright 2000-2022 JetBrains s.r.o. and contributors. Use of this source code is governed by the Apache 2.0 license. -->
<svg width="16" height="16" viewBox="0 0 16 16" fill="none" xmlns="http://www.w3.org/2000/svg">
<path fill-rule="evenodd" clip-rule="evenodd" d="M3.92163 3.48246C3.92163 3.48246 3.99241 3.58614 4.14545 3.8255C4.29848 4.06487 4.34769 4.18953 4.38191 4.25796C4.39125 4.24883 4.63125 4.03688 4.65656 3.8255C4.66425 3.76124 4.64907 3.63623 4.56319 3.55313C4.48503 3.47751 4.3378 3.44079 4.29998 3.43478C4.09843 3.40276 3.95458 3.47436 3.92163 3.48246Z" fill="#389FD6"/>
<path fill-rule="evenodd" clip-rule="evenodd" d="M11.6289 12.1041C11.7054 12.18 11.7145 12.3033 11.7815 12.4082C11.8951 12.5981 12.0942 12.854 12.2749 12.9875C12.4744 13.1395 12.6738 13.3957 12.883 13.5286C13.2531 13.7575 13.6711 13.8991 14.0314 14.1272C14.241 14.2601 14.4492 14.3165 14.6588 14.4593C14.7629 14.5354 14.8288 14.659 14.9623 14.7058C14.9231 14.6392 14.8279 14.2048 14.5291 13.8028C14.3176 13.5181 13.9124 13.2497 13.7592 13.1395C13.4551 12.9299 13.006 12.645 12.883 12.2948C13.0727 12.256 13.8181 12.2076 14.1505 12.1223C14.3027 12.084 14.6588 11.8667 14.6588 11.8667C14.5675 11.776 14.4969 11.3222 14 10.8653C13.5615 10.462 12.7041 10.0564 12.446 9.8958C12.1512 9.70589 11.1547 9.46416 11.088 9.3688C10.9169 9.15982 10.8216 8.88489 10.6984 8.63756C10.4233 8.1159 10.1569 7.53683 9.9199 6.98515C9.74906 6.61506 9.64457 6.24498 9.43558 5.90289C8.457 4.28822 7.39381 3.31066 5.76048 2.35135C5.40906 2.1515 4.99129 2.06628 4.54532 1.96179C4.30752 1.95185 4.07033 1.93338 3.83294 1.92405C3.68077 1.8573 3.52859 1.74387 3.3959 1.65845C2.85436 1.31677 1.45903 0.509034 1.05993 1.48701C0.803464 2.10463 1.43975 2.71211 1.65828 3.02559C1.81958 3.2437 2.02877 3.49103 2.14219 3.73756C2.20874 3.89906 2.22781 4.07031 2.29457 4.24095C2.44633 4.65872 2.58857 5.12416 2.78842 5.51373C2.89251 5.71318 3.00633 5.92237 3.13923 6.10193C3.21593 6.20703 3.34842 6.2539 3.37703 6.42535C3.24454 6.61506 3.23419 6.89993 3.1583 7.13753C2.81662 8.21066 2.94932 9.54005 3.43384 10.3281C3.58541 10.5655 3.94677 11.088 4.43109 10.8881C4.85839 10.7175 4.76343 10.1761 4.8868 9.70156C4.9152 9.58692 4.89613 9.51164 4.95294 9.43576C5.08584 9.72043 5.21914 9.97628 5.34251 10.2429C5.63732 10.7077 6.98517 11.9803 7.27004 12.085C7.19416 11.9712 6.95521 11.4867 6.8217 11.2969C6.423 10.7654 6.12591 10.1761 5.81325 9.56845C5.66087 9.27344 5.38913 8.9057 5.26557 8.6115C5.24553 8.5715 5.07413 8.24656 4.97847 8.26694C4.80284 8.30436 4.45992 8.79446 4.39241 8.95996C4.21183 9.3688 4.20558 9.72043 4.13863 10.2429C4.10089 10.2528 3.76591 9.87877 3.67727 9.27001C3.57064 8.53763 3.6502 7.64799 3.78526 7.22274C3.85141 7.0237 4.12926 6.39695 4.01483 6.20703C3.95741 6.02585 3.88955 5.92237 3.78526 5.77932C3.6621 5.59895 3.46164 5.3715 3.37703 5.17164C3.14897 4.64005 2.92685 4.05103 2.68073 3.51944C2.5667 3.27211 2.3601 3.01564 2.1992 2.78819C2.01842 2.53173 1.44929 1.7246 1.52497 1.61098C1.54364 1.53489 1.58219 1.50628 1.65828 1.48701C1.78103 1.38272 2.33836 1.70399 2.44987 1.77397C2.69236 1.92615 3.02139 2.27157 3.13923 2.35135C3.27233 2.44651 3.41477 2.47451 3.58541 2.5224H3.78526C4.089 2.58834 4.43109 2.58445 4.71616 2.67028C5.21914 2.83159 5.67486 3.17832 6.08349 3.43478C7.32706 4.22304 8.35271 5.38648 9.04561 6.72521C9.15984 6.94333 9.75859 8.31442 9.95764 8.76972C10.1569 9.2161 10.3472 9.5249 10.6325 9.8958C10.7745 10.0948 11.3444 10.2236 11.6009 10.3281C11.7904 10.4133 12.0852 10.5235 12.2563 10.6278C12.5791 10.827 12.9013 10.9735 13.2056 11.1923C13.3572 11.3061 13.6176 11.4106 13.6462 11.6009C13.2803 11.5917 12.7207 11.6127 12.3485 11.7126C11.9477 11.8201 11.639 12.0105 11.6289 12.1041Z" fill="#389FD6"/>
</svg>
