<svg width="16" height="16" viewBox="0 0 16 16" fill="none" xmlns="http://www.w3.org/2000/svg">
<path fill-rule="evenodd" clip-rule="evenodd" d="M14.0875 7.73537C14.8498 7.73537 15.2112 8.00829 15.25 8.03904L15.3908 8.15031L15.3324 8.3212C15.2392 8.55692 15.0957 8.76945 14.9119 8.94392C14.6352 9.21746 14.1336 9.5439 13.3179 9.5439H13.1863C13.1193 9.71333 13.0476 9.9118 12.9697 10.1276C12.6636 10.9749 12.2611 12.0892 11.6673 12.7614C11.2217 13.2658 10.6975 13.6948 10.1151 14.0321C9.4083 14.4323 8.63953 14.7116 7.8406 14.8583C7.26588 14.9652 6.6824 15.0181 6.09783 15.0163C4.80382 15.0163 4.24798 14.8704 3.34534 14.4401C2.4427 14.0098 1.89992 13.3003 1.41239 12.196C1.14196 11.5834 1.04463 10.6734 1.01158 9.98449C0.985785 9.44692 1.42615 9.02076 1.96433 9.02076H10.9653C11.0802 9.01646 11.6482 8.96789 12.0023 8.77057C11.7091 8.30705 11.6261 7.76488 11.7626 7.18763C11.7825 7.10437 11.8063 7.02221 11.8338 6.94141C11.9061 6.72897 12.0044 6.5259 12.1265 6.33684L12.2611 6.14258L12.4658 6.26062L12.4659 6.26064C12.5039 6.28307 13.3394 6.77611 13.4869 7.78699C13.6854 7.75351 13.8862 7.73624 14.0875 7.73537ZM5.74991 12.5C5.74991 12.9142 5.41413 13.25 4.99991 13.25C4.5857 13.25 4.24991 12.9142 4.24991 12.5C4.24991 12.0858 4.5857 11.75 4.99991 11.75C5.41413 11.75 5.74991 12.0858 5.74991 12.5Z" fill="#3574F0"/>
<rect x="3.5" y="5.5" width="3" height="3" rx="0.5" fill="#3574F0"/>
<rect x="7" y="5.5" width="3" height="3" rx="0.5" fill="#3574F0"/>
<rect x="7" y="2" width="3" height="3" rx="0.5" fill="#3574F0"/>
</svg>
