<!-- Copyright 2000-2022 JetBrains s.r.o. and contributors. Use of this source code is governed by the Apache 2.0 license. -->
<svg width="16" height="16" viewBox="0 0 16 16" fill="none" xmlns="http://www.w3.org/2000/svg">
<path d="M14.206 1.02177C13.8873 1.07598 13.2998 1.34153 12.5452 1.76919L12.6768 2.83496C13.1848 2.4892 13.6839 2.19523 14.1589 1.96377C14.1941 1.94415 14.214 1.93526 14.214 1.93526C14.1941 1.94415 14.1789 1.95488 14.1589 1.96377C14.0022 2.04154 13.5227 2.29889 12.732 2.8782C13.2221 3.03875 13.9996 3.22686 14.6414 3.35181C15.2051 2.41502 15.0265 1.81675 15.0265 1.81675C15.0265 1.81675 14.855 0.912248 14.206 1.02177Z" fill="url(#paint0_linear_1228_28960)"/>
<path d="M10.415 4.58759C10.6608 4.37847 10.9066 4.16935 11.1469 3.97466C11.4023 3.76924 11.6492 3.57158 11.902 3.38724C11.9172 3.37651 11.9324 3.36577 11.9475 3.35504C12.1937 3.17366 12.438 2.99708 12.6769 2.83494L12.5452 1.76917C12.495 1.79952 12.4399 1.82804 12.3896 1.8584C12.1903 1.97503 11.9807 2.10423 11.7626 2.24122C11.516 2.39486 11.2639 2.56293 10.9966 2.74173C10.7512 2.90684 10.5039 3.07676 10.251 3.2611C10.037 3.4162 9.82111 3.57611 9.60154 3.74564C9.59304 3.75341 9.58638 3.75637 9.57788 3.76414L9.72528 5.20566C9.95665 4.99101 10.1843 4.78597 10.415 4.58759Z" fill="url(#paint1_linear_1228_28960)"/>
<path d="M5.68234 9.29831C5.89336 9.0648 6.11104 8.82834 6.33056 8.58706C6.53974 8.35837 6.75372 8.13152 6.97436 7.90171C7.195 7.6719 7.4138 7.44689 7.63444 7.21708C7.86173 6.98431 8.09384 6.75338 8.3241 6.52726C8.55436 6.30114 8.78277 6.07983 9.01599 5.86036C9.101 5.78264 9.1812 5.70308 9.26621 5.62536C9.41258 5.48842 9.5571 5.3563 9.70162 5.22417C9.71012 5.2164 9.71862 5.20863 9.72527 5.20566L9.57972 3.75934C9.56457 3.77007 9.54756 3.78562 9.53241 3.79635C9.29953 3.97181 9.06776 4.15872 8.836 4.34564C8.60239 4.53737 8.36693 4.73391 8.13629 4.93229C7.93965 5.09958 7.74597 5.27353 7.5571 5.44932C7.51644 5.48338 7.48059 5.51927 7.44474 5.55517C7.20486 5.7776 6.9831 5.99595 6.77946 6.21021C6.54367 6.45076 6.33264 6.68426 6.13678 6.90703C6.0078 7.05616 5.88733 7.19751 5.77351 7.33591C5.67854 7.45395 5.58653 7.57864 5.49637 7.69853C5.28316 7.98085 5.08254 8.27352 4.89337 8.56507C4.89337 8.56507 4.92191 9.45336 5.03519 10.0195C5.20001 9.83449 5.36857 9.64135 5.54005 9.45336C5.58625 9.40488 5.63429 9.35159 5.68234 9.29831Z" fill="url(#paint2_linear_1228_28960)"/>
<path d="M4.89447 8.56247C4.668 8.92247 4.43822 9.33388 4.26168 9.70753C4.25614 9.72195 4.2506 9.73638 4.2421 9.74415C4.16789 9.36253 3.77258 8.86869 3.77073 8.8735C3.93131 9.5476 4.00902 10.1789 3.85293 10.7149C3.64099 10.6776 3.39384 10.5166 3.12852 10.2878C3.33627 10.7096 3.55015 10.8855 3.6371 10.9465C3.33156 10.8513 2.94624 10.9351 2.5432 11.0508C3.07206 11.0386 3.47004 11.1086 3.71239 11.2678C2.83803 12.2951 1.91272 13.4407 0.958984 14.6747C1.1036 14.6861 1.21377 14.6291 1.30136 14.5303C2.49898 13.003 5.0469 10.0078 5.0469 10.0078C4.92574 9.44139 4.89447 8.56247 4.89447 8.56247Z" fill="url(#paint3_linear_1228_28960)"/>
<path d="M9.80078 5.32031C9.80078 5.32031 8.50805 6.55458 7.71829 7.36798C6.67293 8.44463 5.97439 9.2199 5.14 10.1937C5.13815 10.1985 5.12965 10.2062 5.12781 10.2111C5.21434 10.2341 5.61644 10.3324 5.61644 10.3324C6.23564 10.4873 7.18935 10.3458 7.9029 9.99621C8.23454 9.8366 8.56059 9.61966 8.88587 9.34725C9.12982 9.14294 9.3782 8.91274 9.62988 8.64519C9.85237 8.41057 10.0726 8.15302 10.3021 7.87143C10.1398 7.89187 9.96556 7.8857 9.77952 7.85291C9.74882 7.84664 9.71146 7.84333 9.68076 7.83707C9.65006 7.8308 9.61455 7.82269 9.57904 7.81457C10.2085 7.81342 10.7165 7.53941 11.1585 7.13526C10.9755 7.18087 10.6918 7.21545 10.3841 7.16906C10.342 7.16391 10.3016 7.15395 10.2613 7.14399C10.2517 7.1403 10.2402 7.14141 10.2306 7.13772C10.4544 7.12981 10.6463 7.10416 10.8264 7.0519C10.8644 7.03893 10.9025 7.02596 10.9406 7.01299C10.9987 6.99113 11.0519 6.96743 11.1051 6.94373C11.1384 6.92891 11.1735 6.90929 11.2087 6.88966C11.2874 6.84264 11.3662 6.79562 11.4438 6.73714C11.4674 6.71863 11.4911 6.70012 11.5148 6.68161C11.5469 6.65533 11.5761 6.6224 11.6083 6.59612C11.7443 6.47177 11.8603 6.3563 11.9546 6.25454C12.0026 6.20125 12.047 6.15758 12.0817 6.11022C12.0987 6.09468 12.1109 6.07728 12.1249 6.05509C12.1663 6.00476 12.2011 5.9574 12.2321 5.91966C12.2772 5.85971 12.3071 5.81051 12.3315 5.77573C12.3067 5.78277 12.2819 5.78981 12.2524 5.79501C12.0027 5.83887 11.675 5.80604 11.4141 5.74219C11.2554 5.70335 9.80078 5.32031 9.80078 5.32031Z" fill="url(#paint4_linear_1228_28960)"/>
<path d="M12.7539 2.86325C12.5332 3.02131 12.2669 3.21281 11.9982 3.42416C11.983 3.43489 11.9679 3.44563 11.9575 3.45821C11.7276 3.64032 11.4789 3.84278 11.216 4.06744C10.9872 4.26101 10.7481 4.46717 10.4901 4.69368C10.2709 4.89094 10.0366 5.09894 9.79486 5.32618L11.408 5.75228C11.9394 5.71902 12.2134 5.609 12.5158 5.41057C12.5982 5.35393 12.6807 5.29729 12.7649 5.23584C13.0196 5.04669 13.2836 4.83349 13.5264 4.61772C13.7626 4.40491 13.9825 4.19137 14.1643 3.9908C14.2793 3.86388 14.3809 3.74287 14.4559 3.63372C14.5253 3.539 14.5852 3.44059 14.6414 3.35179C13.9966 3.22018 13.244 3.02381 12.7539 2.86325Z" fill="url(#paint5_linear_1228_28960)"/>
<path d="M3.99622 11.5203C4.14277 11.6703 4.20397 11.9421 4.24928 12.2409C4.3327 11.9805 4.31735 11.7042 4.19218 11.441C5.06227 11.8191 5.91183 11.8914 6.55538 11.3936C6.6112 11.3488 6.66886 11.2992 6.72171 11.2478C6.45702 11.4055 6.19407 11.4149 5.78307 11.2351C5.78307 11.2351 5.78307 11.2351 5.77826 11.2332C5.77826 11.2332 5.77826 11.2332 5.78307 11.2351C6.50385 11.1972 6.91316 11.0509 7.35711 10.7137C7.46024 10.6319 7.57003 10.5471 7.68054 10.4461C6.92963 10.7924 6.23773 10.7052 5.62504 10.332C5.35464 10.2588 5.12894 10.2109 5.12894 10.2109C5.12894 10.2109 4.30676 11.1495 3.99622 11.5203Z" fill="url(#paint6_linear_1228_28960)"/>
<defs>
<linearGradient id="paint0_linear_1228_28960" x1="13.5147" y1="4.16771" x2="17.0502" y2="3.0091" gradientUnits="userSpaceOnUse">
<stop stop-color="#F69923"/>
<stop offset="0.3123" stop-color="#F79A23"/>
<stop offset="0.8383" stop-color="#E97826"/>
</linearGradient>
<linearGradient id="paint1_linear_1228_28960" x1="8.73674" y1="20.3361" x2="19.0017" y2="8.28927" gradientUnits="userSpaceOnUse">
<stop offset="0.3233" stop-color="#9E2064"/>
<stop offset="0.6302" stop-color="#C92037"/>
<stop offset="0.7514" stop-color="#CD2335"/>
<stop offset="1" stop-color="#E97826"/>
</linearGradient>
<linearGradient id="paint2_linear_1228_28960" x1="6.22587" y1="21.5079" x2="19.749" y2="11.5919" gradientUnits="userSpaceOnUse">
<stop offset="0.3233" stop-color="#9E2064"/>
<stop offset="0.6302" stop-color="#C92037"/>
<stop offset="0.7514" stop-color="#CD2335"/>
<stop offset="1" stop-color="#E97826"/>
</linearGradient>
<linearGradient id="paint3_linear_1228_28960" x1="2.63622" y1="18.8807" x2="11.5932" y2="14.9877" gradientUnits="userSpaceOnUse">
<stop stop-color="#282662"/>
<stop offset="0.0954839" stop-color="#662E8D"/>
<stop offset="0.7882" stop-color="#9F2064"/>
<stop offset="0.9487" stop-color="#CD2032"/>
</linearGradient>
<linearGradient id="paint4_linear_1228_28960" x1="11.2186" y1="18.5394" x2="17.2529" y2="4.50434" gradientUnits="userSpaceOnUse">
<stop offset="0.3233" stop-color="#9E2064"/>
<stop offset="0.6302" stop-color="#C92037"/>
<stop offset="0.7514" stop-color="#CD2335"/>
<stop offset="1" stop-color="#E97826"/>
</linearGradient>
<linearGradient id="paint5_linear_1228_28960" x1="14.384" y1="19.1409" x2="18.1505" y2="4.69322" gradientUnits="userSpaceOnUse">
<stop offset="0.3233" stop-color="#9E2064"/>
<stop offset="0.6302" stop-color="#C92037"/>
<stop offset="0.7514" stop-color="#CD2335"/>
<stop offset="1" stop-color="#E97826"/>
</linearGradient>
<linearGradient id="paint6_linear_1228_28960" x1="9.31273" y1="15.6032" x2="11.1568" y2="8.05646" gradientUnits="userSpaceOnUse">
<stop stop-color="#282662"/>
<stop offset="0.0954839" stop-color="#662E8D"/>
<stop offset="0.7882" stop-color="#9F2064"/>
<stop offset="0.9487" stop-color="#CD2032"/>
</linearGradient>
</defs>
</svg>
